<svg width="45" height="45" viewBox="0 0 45 45" fill="none" xmlns="http://www.w3.org/2000/svg">
<path d="M22.5 4.21875C18.8843 4.21875 15.3498 5.29093 12.3435 7.2997C9.33715 9.30847 6.994 12.1636 5.61034 15.5041C4.22667 18.8445 3.86464 22.5203 4.57003 26.0665C5.27541 29.6127 7.01653 32.8701 9.57321 35.4268C12.1299 37.9835 15.3873 39.7246 18.9335 40.43C22.4797 41.1354 26.1555 40.7733 29.4959 39.3897C32.8364 38.006 35.6915 35.6629 37.7003 32.6565C39.7091 29.6502 40.7813 26.1157 40.7813 22.5C40.7761 17.6531 38.8484 13.0061 35.4212 9.57886C31.9939 6.15157 27.3469 4.22387 22.5 4.21875ZM29.1199 27.1301C29.2506 27.2607 29.3542 27.4158 29.4249 27.5866C29.4956 27.7573 29.532 27.9402 29.532 28.125C29.532 28.3098 29.4956 28.4927 29.4249 28.6634C29.3542 28.8342 29.2506 28.9893 29.1199 29.1199C28.9893 29.2506 28.8342 29.3542 28.6635 29.4249C28.4927 29.4956 28.3098 29.532 28.125 29.532C27.9402 29.532 27.7573 29.4956 27.5866 29.4249C27.4159 29.3542 27.2607 29.2506 27.1301 29.1199L22.5 24.4881L17.8699 29.1199C17.7393 29.2506 17.5842 29.3542 17.4135 29.4249C17.2427 29.4956 17.0598 29.532 16.875 29.532C16.6902 29.532 16.5073 29.4956 16.3366 29.4249C16.1659 29.3542 16.0107 29.2506 15.8801 29.1199C15.7494 28.9893 15.6458 28.8342 15.5751 28.6634C15.5044 28.4927 15.468 28.3098 15.468 28.125C15.468 27.9402 15.5044 27.7573 15.5751 27.5866C15.6458 27.4158 15.7494 27.2607 15.8801 27.1301L20.5119 22.5L15.8801 17.8699C15.6162 17.6061 15.468 17.2482 15.468 16.875C15.468 16.5018 15.6162 16.1439 15.8801 15.8801C16.144 15.6162 16.5018 15.468 16.875 15.468C17.2482 15.468 17.6061 15.6162 17.8699 15.8801L22.5 20.5119L27.1301 15.8801C27.2607 15.7494 27.4159 15.6458 27.5866 15.5751C27.7573 15.5044 27.9402 15.468 28.125 15.468C28.3098 15.468 28.4927 15.5044 28.6635 15.5751C28.8342 15.6458 28.9893 15.7494 29.1199 15.8801C29.2506 16.0107 29.3542 16.1658 29.4249 16.3366C29.4956 16.5073 29.532 16.6902 29.532 16.875C29.532 17.0598 29.4956 17.2427 29.4249 17.4134C29.3542 17.5842 29.2506 17.7393 29.1199 17.8699L24.4881 22.5L29.1199 27.1301Z" fill="black"/>
</svg>
