<svg width="36" height="40" viewBox="0 0 36 40" fill="none" xmlns="http://www.w3.org/2000/svg">
<path d="M6.625 1L1 8.5V34.75C1 35.7446 1.39509 36.6984 2.09835 37.4016C2.80161 38.1049 3.75544 38.5 4.75 38.5H31C31.9946 38.5 32.9484 38.1049 33.6516 37.4016C34.3549 36.6984 34.75 35.7446 34.75 34.75V8.5L29.125 1H6.625Z" stroke="#784021" stroke-width="2" stroke-linecap="round" stroke-linejoin="round"/>
<path d="M1 8.5H34.75" stroke="#784021" stroke-width="2" stroke-linecap="round" stroke-linejoin="round"/>
<path d="M25.375 16C25.375 17.9891 24.5848 19.8968 23.1783 21.3033C21.7718 22.7098 19.8641 23.5 17.875 23.5C15.8859 23.5 13.9782 22.7098 12.5717 21.3033C11.1652 19.8968 10.375 17.9891 10.375 16" stroke="#784021" stroke-width="2" stroke-linecap="round" stroke-linejoin="round"/>
</svg>
