<svg width="37" height="41" viewBox="0 0 37 41" fill="none" xmlns="http://www.w3.org/2000/svg">
<path d="M7.25 1.75L1.625 9.25V35.5C1.625 36.4946 2.02009 37.4484 2.72335 38.1516C3.42661 38.8549 4.38044 39.25 5.375 39.25H31.625C32.6196 39.25 33.5734 38.8549 34.2766 38.1516C34.9799 37.4484 35.375 36.4946 35.375 35.5V9.25L29.75 1.75H7.25Z" stroke="white" stroke-width="2" stroke-linecap="round" stroke-linejoin="round"/>
<path d="M1.625 9.25H35.375" stroke="white" stroke-width="2" stroke-linecap="round" stroke-linejoin="round"/>
<path d="M26 16.75C26 18.7391 25.2098 20.6468 23.8033 22.0533C22.3968 23.4598 20.4891 24.25 18.5 24.25C16.5109 24.25 14.6032 23.4598 13.1967 22.0533C11.7902 20.6468 11 18.7391 11 16.75" stroke="white" stroke-width="2" stroke-linecap="round" stroke-linejoin="round"/>
</svg>
