<svg width="19" height="19" viewBox="0 0 19 19" fill="none" xmlns="http://www.w3.org/2000/svg">
<path d="M9.50016 4.35417L9.07266 4.76584C9.12805 4.8233 9.19445 4.86901 9.26791 4.90023C9.34136 4.93145 9.42035 4.94754 9.50016 4.94754C9.57998 4.94754 9.65897 4.93145 9.73242 4.90023C9.80587 4.86901 9.87228 4.8233 9.92766 4.76584L9.50016 4.35417ZM7.46241 14.5049C6.26225 13.5589 4.95045 12.635 3.90941 11.4633C2.88975 10.3138 2.17725 8.97355 2.17725 7.23346H0.989746C0.989746 9.34405 1.8685 10.9543 3.02195 12.2518C4.15404 13.5264 5.59804 14.5477 6.72695 15.4375L7.46241 14.5049ZM2.17725 7.23346C2.17725 5.53138 3.13912 4.10321 4.4525 3.50234C5.72866 2.91888 7.44341 3.07325 9.07266 4.76584L9.92766 3.9433C7.996 1.93484 5.75083 1.60313 3.9585 2.4225C2.20575 3.22446 0.989746 5.08646 0.989746 7.23346H2.17725ZM6.72695 15.4375C7.13308 15.7573 7.5685 16.0978 8.00945 16.3558C8.45041 16.6131 8.95391 16.8229 9.50016 16.8229V15.6354C9.25475 15.6354 8.96658 15.5404 8.60875 15.3306C8.25012 15.1216 7.87883 14.8335 7.46241 14.5049L6.72695 15.4375ZM12.2734 15.4375C13.4023 14.5469 14.8463 13.5272 15.9784 12.2518C17.1318 10.9535 18.0106 9.34405 18.0106 7.23346H16.8231C16.8231 8.97355 16.1106 10.3138 15.0909 11.4633C14.0499 12.635 12.7381 13.5589 11.5379 14.5049L12.2734 15.4375ZM18.0106 7.23346C18.0106 5.08646 16.7954 3.22446 15.0418 2.4225C13.2495 1.60313 11.0059 1.93484 9.07266 3.9425L9.92766 4.76584C11.5569 3.07405 13.2717 2.91888 14.5478 3.50234C15.8612 4.10321 16.8231 5.53059 16.8231 7.23346H18.0106ZM11.5379 14.5049C11.1215 14.8335 10.7502 15.1216 10.3916 15.3306C10.0337 15.5396 9.74558 15.6354 9.50016 15.6354V16.8229C10.0464 16.8229 10.5499 16.6131 10.9909 16.3558C11.4326 16.0978 11.8672 15.7573 12.2734 15.4375L11.5379 14.5049Z" fill="#7E7E7E"/>
</svg>
