<svg width="22" height="21" viewBox="0 0 22 21" fill="none" xmlns="http://www.w3.org/2000/svg">
<g clip-path="url(#clip0_42_882)">
<path fill-rule="evenodd" clip-rule="evenodd" d="M0.75 10.5C0.75 7.71523 1.8311 5.04451 3.75548 3.07538C5.67986 1.10625 8.28988 0 11.0114 0C13.7328 0 16.3429 1.10625 18.2672 3.07538C20.1916 5.04451 21.2727 7.71523 21.2727 10.5C21.2727 13.2848 20.1916 15.9555 18.2672 17.9246C16.3429 19.8938 13.7328 21 11.0114 21C8.28988 21 5.67986 19.8938 3.75548 17.9246C1.8311 15.9555 0.75 13.2848 0.75 10.5ZM11.0114 10.4715C11.0118 9.49311 11.3919 8.55493 12.0681 7.86325C12.7443 7.17156 13.6613 6.783 14.6175 6.783C14.984 6.783 15.264 6.333 14.9957 6.078C14.16 5.28496 13.1163 4.75862 11.9926 4.56349C10.8689 4.36836 9.71397 4.51292 8.66936 4.97945C7.62475 5.44597 6.73584 6.21421 6.11156 7.18999C5.48729 8.16577 5.15478 9.30672 5.15478 10.473C5.15478 11.6393 5.48729 12.7802 6.11156 13.756C6.73584 14.7318 7.62475 15.5 8.66936 15.9666C9.71397 16.4331 10.8689 16.5776 11.9926 16.3825C13.1163 16.1874 14.16 15.661 14.9957 14.868C15.264 14.613 14.984 14.1615 14.6175 14.1615C14.1438 14.1615 13.6748 14.066 13.2372 13.8805C12.7995 13.6949 12.4019 13.423 12.0671 13.0802C11.7322 12.7374 11.4666 12.3304 11.2854 11.8826C11.1043 11.4347 11.0112 10.9562 11.0114 10.4715Z" fill="black"/>
</g>
<defs>
<clipPath id="clip0_42_882">
<rect width="20.5227" height="21" fill="white" transform="translate(0.75)"/>
</clipPath>
</defs>
</svg>
