<svg width="44" height="44" viewBox="0 0 44 44" fill="none" xmlns="http://www.w3.org/2000/svg">
<g clip-path="url(#clip0_295_97)">
<path d="M22 44C16.1652 44 10.5695 41.6822 6.44365 37.5563C2.31785 33.4305 0 27.8348 0 22C0 16.1652 2.31785 10.5695 6.44365 6.44365C10.5695 2.31785 16.1652 0 22 0C27.8348 0 33.4305 2.31785 37.5563 6.44365C41.6822 10.5695 44 16.1652 44 22C44 27.8348 41.6822 33.4305 37.5563 37.5563C33.4305 41.6822 27.8348 44 22 44ZM33 19.8H11V24.2H33V19.8Z" fill="#7E7C7C"/>
</g>
<defs>
<clipPath id="clip0_295_97">
<rect width="44" height="44" fill="white"/>
</clipPath>
</defs>
</svg>
