<svg width="27" height="27" viewBox="0 0 27 27" fill="none" xmlns="http://www.w3.org/2000/svg">
<path d="M12.7848 2.62516V1.41683C12.7848 1.07447 12.8982 0.787691 13.1249 0.556496C13.3516 0.325302 13.6319 0.209302 13.9657 0.208496C14.3002 0.208496 14.5809 0.324496 14.8076 0.556496C15.0343 0.788496 15.1473 1.07527 15.1465 1.41683V2.62516C15.1465 2.96752 15.0332 3.2547 14.8064 3.4867C14.5797 3.7187 14.2995 3.8343 13.9657 3.8335C13.6311 3.8335 13.3508 3.7175 13.1249 3.4855C12.8989 3.2535 12.7856 2.96672 12.7848 2.62516ZM12.7848 25.5835V24.3752C12.7848 24.0328 12.8982 23.746 13.1249 23.5148C13.3516 23.2836 13.6319 23.1676 13.9657 23.1668C14.3002 23.1668 14.5809 23.2828 14.8076 23.5148C15.0343 23.7468 15.1473 24.0336 15.1465 24.3752V25.5835C15.1465 25.9259 15.0332 26.213 14.8064 26.445C14.5797 26.677 14.2995 26.7926 13.9657 26.7918C13.6311 26.7918 13.3508 26.6758 13.1249 26.4438C12.8989 26.2118 12.7856 25.9251 12.7848 25.5835ZM25.7744 14.7085H24.5935C24.2589 14.7085 23.9787 14.5925 23.7527 14.3605C23.5268 14.1285 23.4134 13.8417 23.4126 13.5002C23.4126 13.1578 23.526 12.871 23.7527 12.6398C23.9794 12.4086 24.2597 12.2926 24.5935 12.2918H25.7744C26.109 12.2918 26.3896 12.4078 26.6163 12.6398C26.8431 12.8718 26.956 13.1586 26.9552 13.5002C26.9552 13.8425 26.8419 14.1297 26.6152 14.3617C26.3884 14.5937 26.1082 14.7093 25.7744 14.7085ZM3.33782 14.7085H2.15695C1.82237 14.7085 1.54211 14.5925 1.31617 14.3605C1.09023 14.1285 0.976861 13.8417 0.976074 13.5002C0.976074 13.1578 1.08944 12.871 1.31617 12.6398C1.54289 12.4086 1.82315 12.2926 2.15695 12.2918H3.33782C3.6724 12.2918 3.95305 12.4078 4.17978 12.6398C4.40651 12.8718 4.51948 13.1586 4.51869 13.5002C4.51869 13.8425 4.40532 14.1297 4.1786 14.3617C3.95187 14.5937 3.67161 14.7093 3.33782 14.7085ZM23.1174 5.85745L22.7041 6.28037C22.4876 6.5019 22.2172 6.61266 21.8928 6.61266C21.5685 6.61266 21.2878 6.49183 21.0509 6.25016C20.8344 6.02864 20.721 5.75193 20.7108 5.42004C20.7006 5.08815 20.8041 4.80097 21.0214 4.5585L21.4642 4.10537C21.6807 3.8637 21.9562 3.74287 22.2908 3.74287C22.6254 3.74287 22.9108 3.8637 23.1469 4.10537C23.3831 4.34704 23.4965 4.63905 23.487 4.98141C23.4776 5.32377 23.3544 5.61579 23.1174 5.85745ZM6.90995 22.4418L6.46713 22.895C6.25063 23.1366 5.9751 23.2575 5.64052 23.2575C5.30594 23.2575 5.02056 23.1366 4.78438 22.895C4.54821 22.6533 4.43485 22.3613 4.44429 22.0189C4.45374 21.6766 4.57694 21.3845 4.81391 21.1429L5.22721 20.72C5.4437 20.4984 5.71452 20.3877 6.03965 20.3877C6.36478 20.3877 6.64504 20.5085 6.88043 20.7502C7.09692 20.9717 7.21029 21.2488 7.22052 21.5815C7.23076 21.9142 7.12723 22.201 6.90995 22.4418ZM21.4347 22.8647L21.0214 22.4418C20.8049 22.2203 20.6966 21.9436 20.6966 21.6117C20.6966 21.2798 20.8147 20.9926 21.0509 20.7502C21.2674 20.5286 21.5382 20.413 21.8633 20.4034C22.1885 20.3937 22.4687 20.4992 22.7041 20.72L23.1469 21.1731C23.3831 21.3946 23.5012 21.6766 23.5012 22.0189C23.5012 22.3613 23.3831 22.6533 23.1469 22.895C22.9108 23.1366 22.6254 23.2526 22.2908 23.243C21.9562 23.2333 21.6708 23.1072 21.4347 22.8647ZM5.22721 6.28037L4.78438 5.82725C4.54821 5.60572 4.43012 5.32377 4.43012 4.98141C4.43012 4.63905 4.54821 4.34704 4.78438 4.10537C5.02056 3.8637 5.30594 3.7477 5.64052 3.75737C5.9751 3.76704 6.26047 3.89311 6.49665 4.13558L6.90995 4.5585C7.12645 4.78002 7.23469 5.05714 7.23469 5.38983C7.23469 5.72252 7.1166 6.0093 6.88043 6.25016C6.66394 6.47169 6.39352 6.58769 6.06917 6.59816C5.74483 6.60864 5.46417 6.5027 5.22721 6.28037ZM13.9657 20.7502C11.9975 20.7502 10.3246 20.0453 8.94696 18.6356C7.56927 17.2259 6.88043 15.5141 6.88043 13.5002C6.88043 11.4863 7.56927 9.77447 8.94696 8.36475C10.3246 6.95502 11.9975 6.25016 13.9657 6.25016C15.9338 6.25016 17.6067 6.95502 18.9844 8.36475C20.362 9.77447 21.0509 11.4863 21.0509 13.5002C21.0509 15.5141 20.362 17.2259 18.9844 18.6356C17.6067 20.0453 15.9338 20.7502 13.9657 20.7502Z" fill="#FFD770"/>
</svg>
